<?xml version="1.0"?>
<svg xmlns="http://www.w3.org/2000/svg" xmlns:xlink="http://www.w3.org/1999/xlink" version="1.1" id="Capa_1" x="0px" y="0px" width="512px" height="512px" viewBox="0 0 439.875 439.875" style="enable-background:new 0 0 439.875 439.875;" xml:space="preserve" class=""><g><g>
	<g>
		<path d="M172.125,153H153c-21.038,0-38.25,17.212-38.25,38.25v28.688v66.938h19.125V229.5h57.375v57.375h19.125V229.5v-38.25    C210.375,170.212,193.163,153,172.125,153z M191.25,210.375h-57.375V191.25c0-11.475,7.65-19.125,19.125-19.125h19.125    c11.475,0,19.125,7.65,19.125,19.125V210.375z" data-original="#000000" class="active-path" data-old_color="#c2c2c2" fill="#c2c2c2"/>
		<path d="M382.5,95.625H57.375C24.862,95.625,0,120.487,0,153v133.875c0,32.513,24.862,57.375,57.375,57.375H382.5    c32.513,0,57.375-24.862,57.375-57.375V153C439.875,120.487,415.013,95.625,382.5,95.625z M420.75,286.875    c0,21.037-17.213,38.25-38.25,38.25H57.375c-21.038,0-38.25-17.213-38.25-38.25V153c0-21.038,17.212-38.25,38.25-38.25H382.5    c21.037,0,38.25,17.212,38.25,38.25V286.875z" data-original="#000000" class="active-path" data-old_color="#c2c2c2" fill="#c2c2c2"/>
		<polygon points="248.625,172.125 267.75,172.125 267.75,267.75 248.625,267.75 248.625,286.875 306,286.875 306,267.75     286.875,267.75 286.875,172.125 306,172.125 306,153 248.625,153   " data-original="#000000" class="active-path" data-old_color="#c2c2c2" fill="#c2c2c2"/>
	</g>
</g></g> </svg>
