<?xml version="1.0"?>
<svg xmlns="http://www.w3.org/2000/svg" xmlns:xlink="http://www.w3.org/1999/xlink" version="1.1" id="Capa_1" x="0px" y="0px" width="512px" height="512px" viewBox="0 0 439.875 439.875" style="enable-background:new 0 0 439.875 439.875;" xml:space="preserve" class=""><g><g>
	<g>
		<path d="M114.75,153H57.375v38.25v95.625H76.5V229.5h38.25c21.038,0,38.25-17.213,38.25-38.25C153,170.212,135.788,153,114.75,153    z M114.75,210.375H76.5v-38.25h38.25c11.475,0,19.125,7.65,19.125,19.125S126.225,210.375,114.75,210.375z" data-original="#000000" class="active-path" data-old_color="#c2c2c2" fill="#c2c2c2"/>
		<path d="M382.5,95.625H57.375C24.862,95.625,0,120.487,0,153v133.875c0,32.513,24.862,57.375,57.375,57.375H382.5    c32.513,0,57.375-24.862,57.375-57.375V153C439.875,120.487,415.013,95.625,382.5,95.625z M420.75,286.875    c0,21.037-17.213,38.25-38.25,38.25H57.375c-21.038,0-38.25-17.213-38.25-38.25V153c0-21.038,17.212-38.25,38.25-38.25H382.5    c21.037,0,38.25,17.212,38.25,38.25V286.875z" data-original="#000000" class="active-path" data-old_color="#c2c2c2" fill="#c2c2c2"/>
		<path d="M229.5,153h-57.375v133.875H229.5c21.037,0,38.25-17.213,38.25-38.25V191.25C267.75,170.212,250.537,153,229.5,153z     M248.625,248.625c0,11.475-7.65,19.125-19.125,19.125h-38.25v-95.625h38.25c11.475,0,19.125,7.65,19.125,19.125V248.625z" data-original="#000000" class="active-path" data-old_color="#c2c2c2" fill="#c2c2c2"/>
		<polygon points="286.875,286.875 306,286.875 306,229.5 363.375,229.5 363.375,210.375 306,210.375 306,172.125 382.5,172.125     382.5,153 286.875,153   " data-original="#000000" class="active-path" data-old_color="#c2c2c2" fill="#c2c2c2"/>
	</g>
</g></g> </svg>
